<?xml version="1.0" standalone="no"?>
<!DOCTYPE svg PUBLIC "-//W3C//DTD SVG 20010904//EN"
 "http://www.w3.org/TR/2001/REC-SVG-20010904/DTD/svg10.dtd">
<svg version="1.0" xmlns="http://www.w3.org/2000/svg"
 width="600.000000pt" height="600.000000pt" viewBox="0 0 600.000000 600.000000"
 preserveAspectRatio="xMidYMid meet">
<metadata>
Created by potrace 1.11, written by Peter Selinger 2001-2013
</metadata>
<g transform="translate(0.000000,600.000000) scale(0.100000,-0.100000)"
fill="#000000" stroke="none">
<path d="M4135 5052 c-93 -32 -170 -113 -197 -206 -16 -55 -13 -170 5 -228 8
-27 13 -48 10 -48 -3 0 -23 14 -45 32 -22 17 -90 60 -151 94 l-110 63 37 22
c20 11 36 23 36 25 0 7 -55 -18 -72 -32 -13 -12 -21 -13 -37 -4 -20 10 -20 12
-5 48 8 20 22 48 31 62 l16 25 -21 -19 c-12 -10 -29 -38 -38 -61 -24 -63 -44
-50 -44 29 0 61 -25 136 -50 151 -6 4 -2 -12 11 -36 12 -25 24 -70 27 -108 5
-60 4 -64 -14 -57 -38 15 -241 64 -311 76 -40 6 -73 16 -73 22 0 7 -4 7 -12 1
-15 -12 -88 -5 -88 8 0 14 -71 89 -84 89 -6 0 1 -10 15 -23 15 -12 34 -33 43
-47 l15 -25 -182 0 c-258 -1 -437 -34 -651 -119 l-109 -44 -45 29 c-192 122
-444 110 -593 -29 -72 -66 -110 -135 -116 -211 -5 -69 19 -115 73 -137 56 -24
91 -6 179 91 50 54 89 89 116 99 40 16 149 22 148 9 0 -5 -27 -30 -61 -57
-111 -91 -243 -262 -326 -423 -33 -65 -40 -73 -67 -74 l-30 -1 27 -9 c27 -10
27 -10 11 -45 -13 -26 -23 -34 -42 -34 -39 0 -87 -16 -138 -45 -58 -35 -51
-41 11 -10 43 22 131 43 141 34 2 -2 -6 -40 -17 -84 -15 -61 -20 -114 -21
-220 0 -155 15 -244 63 -378 29 -77 29 -79 7 -63 -119 88 -279 79 -389 -23
l-50 -47 26 -31 c14 -17 26 -40 26 -51 0 -43 -59 -69 -88 -40 -17 17 -28 -1
-43 -70 -10 -40 -9 -72 0 -140 36 -253 118 -419 255 -516 138 -99 292 -124
384 -63 l42 27 0 -24 c0 -34 -27 -171 -60 -307 -37 -152 -45 -232 -30 -305 18
-91 74 -195 148 -275 51 -56 62 -73 51 -80 -8 -5 -19 -9 -26 -9 -6 0 -15 -5
-19 -11 -4 -7 0 -9 12 -6 90 27 103 18 75 -57 -11 -31 -21 -64 -20 -74 0 -9 6
-1 14 19 7 20 20 50 29 67 l16 32 53 -34 c82 -52 168 -85 273 -102 90 -16 105
-16 213 0 64 9 172 32 241 51 309 86 366 86 690 0 205 -55 307 -70 419 -61
358 27 607 198 662 457 18 85 5 196 -46 379 -25 91 -48 195 -52 233 l-6 67 44
-20 c123 -55 330 13 449 148 118 133 197 444 156 615 -20 85 -46 137 -98 193
-106 115 -300 138 -407 48 -24 -20 -30 -22 -41 -10 -9 12 -6 30 14 86 32 88
62 238 71 353 4 48 9 87 12 87 2 0 17 -7 33 -15 17 -9 30 -11 30 -6 0 5 -16
16 -35 25 -20 10 -35 24 -35 34 0 9 -3 27 -6 40 -6 20 -3 22 39 22 24 0 64 -7
88 -15 36 -13 41 -13 29 -2 -21 20 -76 37 -120 37 l-37 0 -13 73 c-7 39 -27
113 -45 162 -30 86 -31 93 -18 130 26 72 13 203 -31 325 -56 153 -64 196 -43
217 15 15 24 16 87 5 91 -15 105 -15 144 3 71 34 89 135 37 217 -36 56 -93 92
-181 112 -84 20 -133 19 -195 -2z m15 -73 c-6 -18 -10 -47 -10 -64 0 -35 29
-103 54 -128 16 -15 16 -19 2 -39 -9 -12 -16 -33 -16 -45 0 -32 -45 -58 -98
-58 -38 0 -48 5 -79 39 -34 37 -35 41 -30 95 8 95 64 182 139 220 23 11 43 19
45 18 1 -2 -2 -19 -7 -38z m-1093 -179 l12 -55 -2 50 c-1 28 1 51 6 53 26 8
35 0 35 -34 0 -19 3 -38 6 -41 3 -4 6 10 6 30 0 20 4 39 10 42 18 11 244 -36
365 -76 188 -63 317 -138 454 -265 53 -49 91 -98 91 -118 0 -3 -12 -1 -26 4
-37 15 -101 12 -134 -5 -33 -17 -70 -61 -70 -84 0 -9 8 -3 20 16 10 18 29 39
42 47 53 35 168 23 176 -17 3 -16 0 -18 -20 -11 -88 29 -143 -35 -143 -166 0
-64 4 -83 30 -129 52 -94 147 -155 208 -132 29 11 67 57 67 80 0 10 16 33 35
51 30 29 37 32 45 20 16 -24 60 -170 67 -217 5 -36 3 -43 -11 -43 -22 0 -89
-34 -106 -55 -9 -10 3 -8 36 9 76 38 88 38 92 -5 l3 -36 -57 -6 c-82 -8 -91
-26 -10 -20 l66 6 0 -56 c0 -31 -7 -89 -15 -129 -18 -87 -74 -268 -84 -268 -3
0 -16 16 -29 35 -27 42 -44 46 -33 7 15 -50 43 -96 93 -152 85 -95 119 -183
98 -260 -8 -29 -32 -62 -93 -122 -45 -46 -94 -99 -109 -118 -30 -40 -48 -97
-39 -123 5 -13 13 -3 34 43 47 101 81 109 146 35 44 -51 43 -97 -5 -154 -42
-49 -148 -123 -250 -174 l-72 -36 -6 34 c-4 19 -12 37 -17 41 -7 4 -9 0 -6
-12 22 -73 25 -68 -62 -101 l-81 -31 0 37 c0 20 -4 41 -8 48 -4 7 -8 -11 -7
-39 0 -32 -5 -53 -12 -55 -9 -3 -13 7 -13 34 0 21 -4 43 -8 50 -4 7 -8 -11 -7
-40 l0 -52 -80 -23 c-220 -63 -468 -92 -784 -92 -277 0 -325 5 -340 34 -11 21
-11 21 -7 -2 8 -42 -18 -18 -31 29 l-13 44 5 -43 c6 -50 -16 -60 -34 -14 l-11
27 4 -27 c4 -33 -12 -38 -18 -5 -12 54 -15 60 -13 25 3 -35 1 -38 -23 -38 -66
0 -326 55 -336 72 -3 5 -10 30 -14 56 l-9 47 2 -52 c2 -51 1 -52 -23 -46 -84
20 -370 148 -384 172 -10 15 13 64 47 100 21 22 25 30 12 23 -28 -14 -51 -41
-68 -82 -9 -21 -16 -28 -16 -17 -1 10 6 32 14 50 l16 32 -21 -24 c-11 -13 -20
-32 -20 -43 0 -17 -5 -16 -45 13 -60 43 -95 98 -95 150 0 42 26 99 45 99 17 0
97 -54 124 -84 25 -27 41 -33 41 -16 0 18 -63 81 -135 135 -143 108 -185 171
-185 279 0 68 29 123 95 180 31 27 55 55 55 67 0 10 -5 18 -11 17 -35 -8 -117
238 -126 377 -8 128 30 349 63 362 7 3 41 -9 75 -26 47 -23 58 -26 45 -12 -10
11 -40 29 -67 40 -27 12 -49 24 -49 27 0 3 7 19 16 35 l15 30 44 -24 c52 -29
51 -9 -1 23 l-34 21 31 62 c66 131 141 231 265 355 67 67 127 122 132 122 5 0
21 -9 35 -21 l26 -20 -61 -60 c-33 -33 -58 -62 -55 -66 4 -3 16 6 27 20 11 14
39 40 61 58 36 28 42 30 56 17 13 -14 11 -19 -23 -44 -93 -71 -141 -169 -95
-194 51 -27 182 1 289 62 76 43 167 131 186 179 16 38 16 43 0 66 -15 24 -20
25 -79 20 -51 -4 -65 -2 -70 11 -7 20 -5 21 46 32 l44 9 -55 -4 c-48 -4 -57
-2 -82 22 -15 15 -28 32 -28 38 0 14 173 84 282 114 135 38 242 49 438 48
l185 -2 12 -55z m-717 -262 c0 -21 -14 -35 -41 -41 -21 -5 -28 -2 -37 19 -16
35 -17 34 33 34 29 0 45 -4 45 -12z m1924 -143 c9 -35 16 -75 16 -88 0 -31
-39 -66 -82 -73 -27 -5 -40 -1 -66 21 -27 22 -31 33 -30 68 1 23 -2 53 -6 66
-7 20 -6 23 9 17 25 -9 89 10 110 34 10 11 21 20 25 20 4 0 15 -29 24 -65z
m-2206 34 c12 -19 8 -25 -50 -79 -113 -106 -139 -61 -30 53 52 53 62 56 80 26z
m1972 -129 c12 -7 11 -12 -5 -30 l-18 -20 -24 22 c-13 12 -23 25 -23 30 0 11
51 10 70 -2z m20 -243 l40 -38 -37 -16 c-48 -19 -61 -12 -95 58 -40 81 -40
100 2 114 l35 12 7 -46 c5 -36 16 -54 48 -84z m98 -89 c-18 -27 -58 -37 -58
-15 0 14 34 35 59 36 11 1 11 -3 -1 -21z m-2859 -789 c17 -6 31 -12 31 -12 0
-1 -9 -24 -20 -52 -18 -46 -19 -48 -21 -20 -1 22 -3 24 -6 9 -3 -18 -13 -22
-53 -26 -115 -11 -200 -109 -200 -229 0 -72 16 -79 18 -7 1 68 36 134 91 173
36 25 52 30 99 29 80 -1 103 -15 94 -57 -4 -17 -7 -64 -6 -103 l1 -72 -38 -5
c-74 -10 -134 -81 -127 -150 l4 -32 12 42 c13 43 69 102 100 104 49 3 69 -6
116 -56 28 -29 59 -57 70 -62 17 -10 17 -11 2 -36 -15 -22 -21 -24 -46 -16
-39 14 -104 -5 -129 -38 -29 -35 -28 -94 2 -128 25 -30 93 -44 123 -26 16 8
11 10 -28 11 -58 0 -88 25 -88 71 0 26 3 30 18 23 9 -4 38 -9 65 -12 42 -3 47
-6 47 -28 0 -36 33 -94 79 -138 39 -38 40 -41 23 -59 -76 -84 -256 -58 -390
58 -80 70 -172 261 -189 396 -4 35 -7 94 -5 132 2 57 6 67 21 67 28 0 72 39
88 78 11 27 12 41 2 69 -10 31 -9 37 12 59 30 32 37 30 41 -11 2 -20 7 -35 12
-34 5 0 13 -5 17 -13 11 -16 12 2 2 28 -6 16 -7 16 -14 -2 -5 -13 -8 -6 -8 24
-1 35 3 44 22 52 31 12 118 12 156 -1z m3331 -12 c32 -11 35 -16 32 -47 -4
-48 -29 -84 -50 -73 -21 10 -150 11 -177 1 -17 -6 -25 -2 -39 24 l-19 32 34
28 c38 32 51 32 60 -3 6 -20 7 -21 9 -4 1 15 5 11 14 -13 6 -18 15 -30 19 -26
11 11 8 36 -3 29 -5 -3 -10 3 -10 14 0 12 -7 21 -15 21 -18 0 -20 16 -2 23 23
10 112 6 147 -6z m-3237 -45 c17 -19 17 -21 -6 -46 -22 -24 -28 -25 -51 -15
-30 14 -31 20 -10 65 17 36 31 36 67 -4z m3356 -40 c63 -81 75 -123 75 -267 0
-116 -3 -139 -28 -210 -61 -177 -152 -292 -284 -357 -57 -28 -77 -33 -142 -33
-62 0 -80 4 -107 23 -18 13 -33 26 -33 30 0 4 26 25 56 47 31 22 66 51 78 65
23 27 90 62 100 53 15 -16 3 -57 -24 -85 -27 -26 -35 -29 -68 -24 -27 5 -33 4
-22 -3 8 -6 32 -11 53 -11 56 0 97 45 97 107 0 39 -5 51 -39 84 -21 22 -42 51
-46 66 -3 15 -26 47 -51 71 -50 50 -51 47 34 98 77 47 157 14 188 -79 19 -55
31 -43 19 19 -13 71 -100 133 -164 117 -21 -5 -23 -3 -16 13 20 48 26 106 17
150 -9 44 -9 46 17 56 43 16 142 6 178 -20 43 -30 74 -100 81 -178 5 -68 16
-83 27 -35 14 63 -25 183 -70 221 -13 11 -13 15 0 33 8 12 15 26 15 31 0 6 -7
0 -16 -12 -27 -39 -32 -24 -10 32 24 62 34 62 85 -2z m-3316 -527 c-3 -18 -61
-29 -78 -15 -8 7 -12 16 -9 22 8 12 90 6 87 -7z m3002 -74 c3 -5 1 -12 -5 -16
-5 -3 -10 1 -10 9 0 18 6 21 15 7z m-2757 -259 c10 -7 8 -18 -7 -53 -69 -155
-44 -221 103 -275 l60 -21 12 -69 c35 -201 126 -298 342 -368 202 -65 474 -97
832 -98 243 -1 362 14 520 64 138 44 224 92 301 168 64 63 109 145 109 199 0
12 11 23 30 30 36 12 37 8 15 -92 -19 -91 -67 -178 -140 -252 -83 -84 -162
-122 -282 -137 -51 -6 -90 -14 -88 -18 8 -12 172 9 228 30 165 62 286 216 325
414 14 69 22 88 44 106 43 33 54 85 34 155 -10 31 -28 82 -42 113 -13 30 -23
56 -22 57 30 20 98 51 102 47 3 -3 6 -29 6 -58 0 -77 25 -193 72 -339 38 -116
42 -140 43 -230 0 -95 -2 -104 -37 -178 -84 -176 -268 -277 -548 -302 -114
-10 -254 10 -470 68 -189 50 -199 52 -325 51 -125 -1 -138 -3 -350 -58 -187
-49 -238 -59 -336 -63 -77 -4 -134 -1 -170 7 -64 15 -162 58 -213 92 l-36 25
32 32 c17 17 28 31 23 31 -5 0 -21 -12 -36 -26 -29 -28 -53 -25 -42 4 6 14 4
15 -9 4 -13 -10 -24 -3 -75 52 -111 118 -162 242 -148 360 3 34 26 142 50 241
25 99 47 206 51 238 7 55 15 65 42 49z m58 -59 c-5 -27 -5 -27 6 -5 8 15 17
21 27 16 9 -4 67 -25 129 -47 103 -37 112 -42 113 -66 l1 -26 9 25 c6 18 7 8
4 -34 -5 -71 4 -67 15 6 l8 53 1 -68 c1 -82 -9 -104 -52 -112 -37 -7 -151 9
-219 31 -99 32 -120 86 -77 198 23 58 46 77 35 29z m2326 -136 c15 -43 28 -88
28 -101 0 -49 -85 -97 -186 -104 -83 -5 -110 6 -129 51 -15 38 -30 123 -15 92
8 -19 9 -19 9 -1 1 11 -4 34 -11 52 -6 17 -8 40 -3 50 7 18 7 18 15 -1 5 -11
9 -38 10 -60 1 -22 5 -49 10 -60 8 -19 3 94 -6 123 -2 6 1 12 6 12 5 0 11 -12
13 -27 4 -27 4 -27 6 3 1 30 4 33 99 66 l97 35 14 -26 c8 -14 27 -61 43 -104z
m-486 -54 c19 -64 14 -80 -32 -102 -32 -17 -140 -27 -178 -17 -30 7 -42 54
-29 107 9 34 10 34 87 45 l77 10 15 -30 14 -31 -5 35 c-3 28 0 24 15 -20 19
-52 21 -33 4 34 -4 16 -2 26 5 26 6 0 18 -26 27 -57z m-1044 21 c14 -4 18 -17
20 -62 l1 -57 6 60 6 60 13 -41 c6 -22 15 -55 18 -74 10 -46 -12 -60 -95 -60
-155 0 -196 46 -151 166 9 23 13 23 86 19 43 -3 86 -7 96 -11z m588 -53 c0
-34 -11 -38 -115 -47 -42 -4 -87 -2 -112 5 -38 11 -43 15 -43 41 l0 30 135 0
135 0 0 -29z m50 -230 c102 -20 203 -52 258 -80 l34 -17 -82 -2 c-194 -4 -248
-58 -181 -179 l29 -52 -45 -7 c-79 -12 -480 2 -588 20 -55 10 -105 19 -112 21
-8 3 -6 18 8 55 29 77 26 126 -11 160 -29 27 -30 29 -12 39 26 14 164 49 237
61 92 14 355 4 465 -19z m-770 -71 c75 -20 88 -73 41 -171 -12 -24 -19 -33
-16 -19 3 14 8 41 11 60 3 28 1 25 -12 -15 -9 -27 -17 -51 -19 -53 -6 -7 -170
41 -177 51 -4 7 -8 43 -8 80 0 61 2 69 23 77 24 10 100 5 157 -10z m1173 -96
c32 -26 56 -51 54 -57 -3 -11 -90 -45 -118 -46 -15 -1 -16 5 -7 42 5 23 7 57
4 75 -2 17 -2 32 2 32 4 0 33 -21 65 -46z m-108 5 c4 -11 2 -42 -5 -68 l-11
-49 -56 -11 c-77 -15 -79 -15 -93 19 -7 17 -17 33 -22 36 -5 4 -3 -8 6 -24 20
-39 20 -42 -4 -42 -13 0 -27 14 -40 40 -25 49 -25 62 -1 84 27 25 67 34 148
35 64 1 72 -1 78 -20z"/>
<path d="M3807 4573 c-12 -11 -7 -40 8 -53 25 -20 42 2 27 35 -12 25 -23 31
-35 18z"/>
<path d="M3860 4510 c0 -5 5 -10 10 -10 6 0 10 5 10 10 0 6 -4 10 -10 10 -5 0
-10 -4 -10 -10z"/>
<path d="M2360 4300 c-35 -5 -22 -7 59 -8 57 -1 102 0 100 2 -10 8 -118 13
-159 6z"/>
<path d="M1817 4293 c-4 -3 -7 -18 -7 -32 1 -51 43 -81 116 -81 51 0 154 28
154 42 0 5 -8 4 -18 -1 -37 -20 -141 -32 -180 -21 -42 11 -67 47 -57 81 7 20
3 24 -8 12z"/>
<path d="M3660 4261 c-12 -24 -13 -31 -2 -31 5 0 14 11 20 25 14 29 -2 34 -18
6z"/>
<path d="M3705 4260 c-10 -11 -15 -23 -12 -27 7 -6 36 25 37 40 0 11 -6 8 -25
-13z"/>
<path d="M2663 4229 c26 -22 72 -77 104 -122 152 -216 204 -238 340 -142 104
73 186 113 269 129 59 12 63 14 29 15 -82 2 -187 -39 -280 -109 -63 -46 -108
-70 -135 -70 -51 0 -110 53 -199 177 -51 71 -143 163 -163 163 -6 0 10 -18 35
-41z"/>
<path d="M2831 4233 c109 -181 159 -193 339 -78 25 16 70 39 100 51 30 13 50
23 44 24 -23 0 -83 -26 -177 -78 -148 -83 -186 -77 -271 48 -51 75 -72 94 -35
33z"/>
<path d="M2220 4209 c-135 -15 -262 -80 -362 -186 -65 -69 -158 -207 -158
-234 0 -27 7 -23 27 14 l17 32 8 -25 c7 -21 7 -20 3 7 -11 82 208 283 349 319
l28 7 -16 -31 c-9 -17 -15 -52 -15 -79 l1 -48 8 50 c8 56 35 115 51 115 7 0 8
-7 4 -17 -4 -10 -10 -31 -12 -48 -3 -27 -2 -26 11 8 23 63 31 67 115 67 161 0
281 -51 386 -162 36 -37 65 -72 65 -77 0 -5 -13 -14 -29 -21 -16 -6 -40 -24
-53 -38 -16 -19 -17 -22 -3 -11 24 20 80 49 93 49 13 0 66 -122 87 -200 21
-76 35 -97 35 -53 0 47 -47 200 -82 265 -41 76 -129 173 -203 220 -98 64 -226
92 -355 77z"/>
<path d="M1638 4140 c-15 -11 -30 -30 -33 -41 -8 -23 10 -49 34 -49 24 0 70
51 73 80 2 20 -2 26 -23 28 -14 2 -36 -6 -51 -18z"/>
<path d="M1737 4135 c-8 -18 11 -31 25 -17 11 11 3 32 -12 32 -4 0 -10 -7 -13
-15z"/>
<path d="M3410 3987 c-41 -12 -99 -36 -129 -52 -117 -64 -300 -272 -317 -360
-12 -64 2 -60 40 13 43 80 127 177 211 242 53 41 56 42 70 24 8 -10 15 -23 15
-28 0 -5 3 -6 6 -3 4 4 -1 18 -10 31 -16 26 -16 26 34 51 l50 25 20 -32 c11
-18 20 -37 20 -42 0 -5 3 -7 6 -3 4 3 -3 23 -15 43 -12 20 -20 38 -18 41 3 2
40 11 83 20 95 19 196 9 271 -28 53 -27 64 -54 43 -112 -7 -23 -7 -28 0 -21 6
6 14 32 18 57 l7 46 51 -39 c45 -34 125 -127 153 -179 5 -9 13 -13 16 -9 14
14 -63 135 -131 205 -101 104 -154 127 -304 130 -96 3 -127 -1 -190 -20z"/>
<path d="M1901 3945 c-1 -33 6 -64 19 -90 l20 -39 -61 -58 c-34 -32 -65 -58
-70 -58 -6 0 -22 12 -36 28 -30 30 -21 9 10 -25 l20 -22 -35 -53 c-62 -93
-126 -221 -154 -303 -37 -111 -40 -259 -6 -356 24 -71 68 -147 110 -191 45
-48 42 -31 -8 45 -26 39 -55 92 -65 117 -22 55 -33 247 -17 276 9 15 11 7 12
-41 1 -226 157 -415 375 -456 179 -34 416 45 560 186 30 29 55 51 55 48 0 -2
-16 -28 -35 -57 -95 -143 -262 -245 -430 -262 -38 -4 -62 -11 -57 -16 13 -13
142 8 216 36 203 77 338 235 403 473 22 81 27 120 27 223 1 136 -13 207 -60
307 l-27 56 24 19 c16 13 18 18 7 14 -10 -3 -24 -8 -30 -10 -13 -4 -98 95 -98
114 0 5 15 26 33 46 26 30 28 35 10 25 -13 -6 -30 -25 -38 -41 l-15 -29 -57
35 c-151 91 -313 84 -487 -21 -32 -19 -62 -35 -67 -35 -14 0 -30 47 -39 110
l-7 55 -2 -50z m533 -59 c168 -83 278 -288 279 -526 1 -156 -48 -281 -152
-389 -137 -143 -339 -218 -514 -192 -422 64 -494 607 -127 961 171 165 363
220 514 146z"/>
<path d="M2635 3900 c-10 -11 -13 -20 -8 -20 13 0 38 29 31 35 -3 3 -13 -4
-23 -15z"/>
<path d="M4187 3885 c-36 -45 -76 -52 -153 -26 -72 24 -84 19 -20 -9 67 -28
127 -26 164 5 16 14 32 34 35 45 3 11 4 20 4 20 -1 0 -14 -16 -30 -35z"/>
<path d="M1941 3899 c-1 -8 6 -24 15 -35 15 -19 15 -19 6 1 -5 11 -12 27 -15
35 -5 13 -6 13 -6 -1z"/>
<path d="M3821 3809 c-1 -9 -10 -28 -21 -42 -17 -22 -26 -25 -53 -20 -38 7
-33 1 46 -52 61 -40 138 -120 171 -177 18 -30 15 -28 -40 20 -66 60 -189 124
-279 147 -77 19 -225 19 -300 0 -33 -9 -84 -29 -115 -45 l-55 -29 44 39 c51
45 150 95 207 105 69 13 74 27 7 22 -57 -5 -62 -3 -66 16 -4 19 -4 19 -6 -3
-1 -21 -12 -31 -59 -52 -217 -100 -322 -307 -293 -578 14 -133 34 -207 78
-300 43 -89 132 -184 211 -224 46 -23 155 -55 190 -56 28 0 1 18 -35 23 -100
17 -230 109 -301 214 -34 49 -26 48 26 -4 121 -121 354 -186 549 -154 135 23
267 106 336 211 l29 45 -6 -35 c-12 -67 -59 -143 -118 -190 -31 -25 -55 -47
-53 -49 9 -8 94 51 132 92 102 111 118 297 47 566 -13 51 -38 122 -55 157 -25
54 -28 67 -18 86 11 21 11 22 -5 8 -16 -13 -21 -11 -47 20 -35 43 -35 49 -4
79 14 13 25 27 25 33 0 5 -12 -4 -26 -21 -14 -17 -31 -31 -36 -31 -6 0 -3 10
8 22 l19 22 -24 -16 c-22 -16 -25 -15 -81 29 l-58 45 20 34 c11 18 17 39 15
46 -4 9 -6 7 -6 -3z m-223 -495 c145 -26 311 -94 446 -183 l38 -25 -5 -59
c-22 -241 -315 -392 -613 -317 -172 44 -290 132 -353 263 -38 80 -63 190 -59
261 3 47 5 50 35 58 108 28 360 29 511 2z"/>
<path d="M3850 3798 c0 -19 2 -20 10 -8 13 19 13 30 0 30 -5 0 -10 -10 -10
-22z"/>
<path d="M1662 3728 c-29 -36 -79 -191 -97 -303 -12 -73 9 -26 26 60 9 46 33
121 53 166 35 81 40 103 18 77z"/>
<path d="M2921 3623 c-19 -43 -24 -115 -10 -148 12 -28 13 -23 20 70 3 55 5
101 4 103 -1 1 -7 -10 -14 -25z"/>
<path d="M4101 3396 c-1 -5 8 -39 19 -75 34 -116 51 -212 52 -305 0 -59 3 -82
8 -66 14 45 10 130 -10 231 -18 86 -67 240 -69 215z"/>
<path d="M2811 3102 c-42 -21 -64 -50 -91 -122 -24 -64 -5 -47 36 32 53 103
167 105 209 4 7 -17 20 -49 29 -70 25 -60 29 -37 5 34 -25 78 -44 107 -80 126
-37 19 -67 18 -108 -4z"/>
<path d="M2818 2960 c-14 -11 -45 -57 -68 -102 -32 -62 -67 -107 -136 -178
-93 -96 -129 -153 -118 -187 14 -43 28 -62 55 -73 32 -14 46 -10 162 41 48 21
98 39 111 39 13 0 46 -16 72 -35 111 -81 186 -96 224 -47 18 22 21 37 18 79
-4 45 -15 68 -73 155 -38 56 -88 147 -112 202 -56 130 -81 149 -135 106z"/>
<path d="M1566 2940 c17 -100 108 -229 198 -280 74 -43 78 -37 7 11 -88 59
-147 139 -197 269 l-14 35 6 -35z"/>
<path d="M4057 2685 c-70 -65 -158 -104 -279 -125 -70 -13 -90 -19 -62 -19
132 -3 303 71 374 162 29 37 23 34 -33 -18z"/>
<path d="M2466 2630 c-54 -53 -68 -61 -136 -79 -42 -12 -88 -21 -102 -21 -42
0 -178 -39 -214 -61 -19 -11 -39 -30 -46 -42 -11 -21 -9 -20 23 3 51 38 79 48
203 70 62 11 128 25 147 30 49 14 49 15 23 -37 -34 -66 -33 -133 4 -173 34
-39 90 -53 152 -39 51 11 116 46 144 78 16 17 8 15 -43 -11 -46 -23 -80 -33
-126 -36 -58 -4 -66 -2 -89 21 -21 21 -26 36 -26 74 1 73 35 134 148 266 8 9
11 17 6 17 -5 0 -36 -27 -68 -60z"/>
<path d="M3188 2586 c41 -64 64 -136 66 -202 1 -46 -3 -57 -27 -81 -41 -42
-108 -39 -179 9 -74 49 -113 68 -140 68 -19 0 -15 -5 19 -24 23 -14 57 -36 76
-50 18 -14 55 -35 81 -47 77 -34 159 -12 192 52 18 36 18 120 -1 166 -8 20
-14 37 -12 39 1 2 22 -3 45 -11 23 -8 82 -21 131 -29 111 -18 165 -33 213 -57
42 -21 52 -24 43 -9 -19 31 -131 70 -260 90 -127 19 -173 38 -227 88 l-51 47
31 -49z"/>
<path d="M2740 2400 c0 -5 7 -10 15 -10 20 0 33 -57 28 -121 -4 -42 -3 -52 7
-42 7 6 14 40 17 76 5 56 3 67 -16 86 -22 22 -51 28 -51 11z"/>
<path d="M2836 2344 c-10 -26 -6 -148 5 -164 8 -11 9 -2 5 35 -2 28 -1 71 3
98 8 45 0 64 -13 31z"/>
<path d="M1846 2325 c-3 -9 -6 -22 -5 -28 0 -7 5 -1 10 12 5 13 8 26 5 28 -2
2 -6 -3 -10 -12z"/>
<path d="M1816 2315 c-3 -9 -6 -31 -5 -48 1 -28 2 -26 10 12 9 46 6 65 -5 36z"/>
<path d="M3991 2305 c1 -19 18 -51 18 -35 0 8 -4 22 -9 30 -5 8 -9 11 -9 5z"/>
<path d="M2124 2235 c-7 -19 -13 -51 -13 -72 1 -35 2 -34 9 13 4 28 13 60 19
72 6 12 9 22 6 22 -3 0 -13 -16 -21 -35z"/>
<path d="M1034 2650 c11 -76 60 -166 125 -231 33 -32 66 -59 75 -59 9 0 -2 16
-29 41 -59 54 -113 137 -140 216 -28 79 -40 92 -31 33z"/>
<path d="M4686 2594 c-36 -76 -75 -133 -145 -206 -52 -56 -18 -46 44 13 52 49
110 144 135 222 21 67 3 51 -34 -29z"/>
<path d="M4126 2055 c8 -77 34 -196 50 -230 8 -16 12 -21 8 -10 -3 11 -15 63
-25 115 -10 52 -23 113 -28 135 -10 39 -10 39 -5 -10z"/>
<path d="M1741 1739 c-3 -132 102 -284 242 -349 96 -45 169 -60 282 -59 l100
2 -105 8 c-58 5 -129 16 -160 25 -164 48 -281 155 -324 300 -34 113 -34 114
-35 73z"/>
<path d="M1577 1740 c-4 -14 -6 -52 -6 -85 l2 -60 9 70 c9 75 7 117 -5 75z"/>
<path d="M4216 1695 c8 -37 14 -45 14 -19 0 10 -5 26 -10 34 -8 11 -9 7 -4
-15z"/>
<path d="M1600 1589 c0 -24 5 -51 10 -59 6 -10 7 3 3 40 -7 69 -13 77 -13 19z"/>
<path d="M1641 1515 c0 -11 4 -27 9 -35 9 -13 10 -13 9 0 0 8 -4 24 -9 35 l-9
20 0 -20z"/>
<path d="M1706 2115 c-3 -9 -6 -22 -5 -28 0 -7 5 -1 10 12 5 13 8 26 5 28 -2
2 -6 -3 -10 -12z"/>
<path d="M3991 2100 c0 -3 6 -25 13 -50 8 -25 15 -36 15 -25 0 17 -26 88 -28
75z"/>
<path d="M3761 1930 c0 -8 4 -22 9 -30 12 -18 12 -2 0 25 -6 13 -9 15 -9 5z"/>
<path d="M3435 1870 l-40 -7 40 -1 c22 0 49 3 60 8 l20 9 -20 -1 c-11 -1 -38
-4 -60 -8z"/>
<path d="M2351 1974 c0 -11 3 -14 6 -6 3 7 2 16 -1 19 -3 4 -6 -2 -5 -13z"/>
<path d="M2519 1948 c4 -28 6 -29 9 -9 2 13 0 27 -5 32 -6 6 -7 -3 -4 -23z"/>
<path d="M2402 1535 c0 -16 2 -22 5 -12 2 9 2 23 0 30 -3 6 -5 -1 -5 -18z"/>
<path d="M3426 1514 c-4 -14 -5 -29 -2 -31 3 -3 8 7 12 21 3 15 4 29 1 32 -2
3 -8 -7 -11 -22z"/>
<path d="M3241 1472 c6 -18 15 -35 20 -38 5 -3 4 7 -3 23 -17 41 -30 53 -17
15z"/>
</g>
</svg>
